<svg width="24" height="24" viewBox="0 0 24 24" fill="none" xmlns="http://www.w3.org/2000/svg">
    <path d="M18.871 14.247 14.4 17.889h-6v-1.222h4.878a.592.592 0 0 0 .529-.323.62.62 0 0 0-.03-.627l-1.065-1.628a2.412 2.412 0 0 0-.864-.8A2.36 2.36 0 0 0 10.716 13H1.2a1.19 1.19 0 0 0-.849.358c-.225.23-.351.54-.351.864v7.334c0 .648.253 1.27.703 1.728.45.459 1.06.716 1.697.716h11.567c.513 0 1.02-.111 1.487-.327a3.606 3.606 0 0 0 1.222-.925L24 14.222l-1.742-.591a3.535 3.535 0 0 0-1.77-.131 3.567 3.567 0 0 0-1.617.747zm1.839-8.881a3.214 3.214 0 0 0 .876-2.222c0-.868-.335-1.654-.876-2.222a2.936 2.936 0 0 0-.966-.681A2.89 2.89 0 0 0 18.593 0S17.1-.004 15.6 1.572C14.1-.004 12.607 0 12.607 0c-.395 0-.787.082-1.15.24a2.94 2.94 0 0 0-.967.68 3.216 3.216 0 0 0-.876 2.222c0 .868.335 1.655.876 2.222L15.6 11l5.11-5.634z" fill="#38423F"/>
</svg>
