<svg width="20" height="16" viewBox="0 0 20 16" fill="none" xmlns="http://www.w3.org/2000/svg">
    <path d="M1.917 4.93c.255.183 1.014.724 2.29 1.623 1.269.9 2.248 1.587 2.924 2.072l.476.344c.241.176.441.323.6.436.159.112.352.232.58.372.227.133.44.239.64.309s.387.105.56.105h.027c.172 0 .358-.035.558-.105.2-.07.414-.169.642-.309.227-.133.42-.26.58-.372.158-.113.358-.253.6-.436.24-.175.4-.295.475-.344.683-.485 2.428-1.714 5.22-3.694.546-.387 1-.85 1.36-1.398.365-.548.544-1.117.544-1.714 0-.499-.18-.927-.53-1.285A1.7 1.7 0 0 0 18.206 0H1.787C1.213 0 .771.197.461.59.152.983 0 1.475 0 2.065c0 .478.207.997.614 1.552.407.555.841.998 1.303 1.314z" fill="#38423F"/>
    <path d="M18.883 6.146a230.298 230.298 0 0 0-5.559 3.919c-.42.316-.765.569-1.034.745a6.653 6.653 0 0 1-1.055.547c-.442.183-.849.281-1.228.281h-.021c-.38 0-.786-.091-1.227-.28a5.661 5.661 0 0 1-1.056-.549 30.838 30.838 0 0 1-1.034-.744c-1.007-.752-2.855-2.058-5.545-3.92A5.708 5.708 0 0 1 0 5.156v9.026c0 .499.172.927.524 1.285.352.358.773.534 1.262.534h16.428c.49 0 .91-.176 1.262-.534.352-.358.524-.786.524-1.285V5.155c-.317.366-.69.696-1.117.99z" fill="#38423F"/>
</svg>
