<svg width="30" height="24" viewBox="0 0 30 24" fill="none" xmlns="http://www.w3.org/2000/svg">
    <path d="M30 2.841a12.98 12.98 0 0 1-3.544.957A6.04 6.04 0 0 0 29.162.45a12.41 12.41 0 0 1-3.9 1.466A6.208 6.208 0 0 0 20.769 0c-3.405 0-6.146 2.721-6.146 6.057 0 .48.041.942.143 1.381A17.5 17.5 0 0 1 2.089 1.104a6.025 6.025 0 0 0-.842 3.06c0 2.098 1.097 3.957 2.732 5.034A6.147 6.147 0 0 1 1.2 8.452v.066c0 2.943 2.132 5.387 4.928 5.95-.501.135-1.047.2-1.613.2-.394 0-.791-.022-1.164-.104a6.197 6.197 0 0 0 5.747 4.219 12.481 12.481 0 0 1-7.626 2.582c-.504 0-.988-.022-1.472-.082C2.724 23.012 5.953 24 9.435 24 20.753 24 26.94 14.77 26.94 6.768c0-.268-.01-.526-.023-.783A12.168 12.168 0 0 0 30 2.841z" fill="#24C87E"/>
</svg>
