<svg width="30" height="24" viewBox="0 0 30 24" fill="none" xmlns="http://www.w3.org/2000/svg">
    <path d="M29.482 3.86C29.115 2.03 27.809.68 26.239.478 22.519 0 18.753-.003 15.005 0 11.256-.002 7.49 0 3.77.477 2.2.68.896 2.03.529 3.861.006 6.469 0 9.315 0 12c0 2.684 0 5.53.523 8.138.366 1.83 1.67 3.182 3.242 3.383 3.72.478 7.485.48 11.234.478 3.75.002 7.514 0 11.233-.478 1.57-.2 2.876-1.552 3.243-3.383C29.998 17.53 30 14.685 30 12c0-2.685.004-5.532-.518-8.14zM11.129 17.346V5.957l9.537 5.712c-3.19 1.899-6.35 3.778-9.537 5.676z" fill="#24C87E"/>
</svg>
